<?xml version="1.0" encoding="utf-8"?>
<svg version="1.1" xmlns:xlink="http://www.w3.org/1999/xlink" width="12px" height="12px" viewBox="169 1127  12 12" xmlns="http://www.w3.org/2000/svg">
  <path d="M 175 1127  C 178.36 1127  181 1129.64  181 1133  C 181 1136.36  178.36 1139  175 1139  C 171.64 1139  169 1136.36  169 1133  C 169 1129.64  171.64 1127  175 1127  Z " fill-rule="nonzero" fill="#ffffff" stroke="none" />
  <path d="M 175 1127.5  C 178.08 1127.5  180.5 1129.92  180.5 1133  C 180.5 1136.08  178.08 1138.5  175 1138.5  C 171.92 1138.5  169.5 1136.08  169.5 1133  C 169.5 1129.92  171.92 1127.5  175 1127.5  Z " stroke-width="1" stroke="#797979" fill="none" />
  <path d="M 175 1136  C 173.32 1136  172 1134.68  172 1133  C 172 1131.32  173.32 1130  175 1130  C 176.68 1130  178 1131.32  178 1133  C 178 1134.68  176.68 1136  175 1136  " fill-rule="nonzero" fill="#797979" stroke="none" />
</svg>