<?xml version="1.0" encoding="utf-8"?>
<svg version="1.1" xmlns:xlink="http://www.w3.org/1999/xlink" width="12px" height="12px" viewBox="1102 1127  12 12" xmlns="http://www.w3.org/2000/svg">
  <path d="M 1108 1127  C 1111.36 1127  1114 1129.64  1114 1133  C 1114 1136.36  1111.36 1139  1108 1139  C 1104.64 1139  1102 1136.36  1102 1133  C 1102 1129.64  1104.64 1127  1108 1127  Z " fill-rule="nonzero" fill="#ffffff" stroke="none" />
  <path d="M 1108 1127.5  C 1111.08 1127.5  1113.5 1129.92  1113.5 1133  C 1113.5 1136.08  1111.08 1138.5  1108 1138.5  C 1104.92 1138.5  1102.5 1136.08  1102.5 1133  C 1102.5 1129.92  1104.92 1127.5  1108 1127.5  Z " stroke-width="1" stroke="#797979" fill="none" />
  <path d="M 1108 1136  C 1106.32 1136  1105 1134.68  1105 1133  C 1105 1131.32  1106.32 1130  1108 1130  C 1109.68 1130  1111 1131.32  1111 1133  C 1111 1134.68  1109.68 1136  1108 1136  " fill-rule="nonzero" fill="#797979" stroke="none" />
</svg>