<?xml version="1.0" encoding="utf-8"?>
<svg version="1.1" xmlns:xlink="http://www.w3.org/1999/xlink" width="12px" height="12px" viewBox="1222 1127  12 12" xmlns="http://www.w3.org/2000/svg">
  <path d="M 1228 1127  C 1231.36 1127  1234 1129.64  1234 1133  C 1234 1136.36  1231.36 1139  1228 1139  C 1224.64 1139  1222 1136.36  1222 1133  C 1222 1129.64  1224.64 1127  1228 1127  Z " fill-rule="nonzero" fill="#f0f0f0" stroke="none" />
  <path d="M 1228 1127.5  C 1231.08 1127.5  1233.5 1129.92  1233.5 1133  C 1233.5 1136.08  1231.08 1138.5  1228 1138.5  C 1224.92 1138.5  1222.5 1136.08  1222.5 1133  C 1222.5 1129.92  1224.92 1127.5  1228 1127.5  Z " stroke-width="1" stroke="#797979" fill="none" />
  <path d="M 1228 1136  C 1226.32 1136  1225 1134.68  1225 1133  C 1225 1131.32  1226.32 1130  1228 1130  C 1229.68 1130  1231 1131.32  1231 1133  C 1231 1134.68  1229.68 1136  1228 1136  " fill-rule="nonzero" fill="#797979" stroke="none" />
</svg>